<?xml version="1.0" encoding="utf-8"?><svg viewBox="0 0 40 40" xmlns="http://www.w3.org/2000/svg" xmlns:xlink="http://www.w3.org/1999/xlink"><style>:root>svg{display:none}:root>svg:target{display:block}</style><svg fill="none" viewBox="0 0 36 36" id="call" xmlns="http://www.w3.org/2000/svg"><path d="M29.086 35.385h-.037c-5.939-.195-12.896-5.951-17.69-10.748C6.56 19.841.804 12.88.62 6.97.55 4.896 5.64 1.207 5.692 1.17c1.32-.92 2.787-.593 3.389.24.407.566 4.265 6.412 4.685 7.075.435.689.37 1.713-.173 2.741-.3.571-1.293 2.318-1.76 3.133.504.716 1.834 2.472 4.581 5.22 2.75 2.746 4.504 4.08 5.223 4.583.815-.466 2.562-1.46 3.133-1.76 1.012-.537 2.03-.605 2.725-.178.71.435 6.54 4.311 7.077 4.685.451.318.741.861.8 1.494.055.639-.142 1.315-.553 1.904-.034.05-3.679 5.078-5.734 5.078z" fill="#0075FF"/></svg><svg fill="none" viewBox="0 0 39 31" id="clients" xmlns="http://www.w3.org/2000/svg"><path d="M19.318 24.014a5.812 5.812 0 118.22-8.22c.246.246.452.514.646.79.194-.275.4-.544.646-.79a5.803 5.803 0 014.11-1.702c1.486 0 2.975.567 4.11 1.701.075.076.128.166.2.245 2.403-4.085 1.888-9.411-1.619-12.918A10.631 10.631 0 0028.096 0a10.626 10.626 0 00-7.536 3.121c-.45.451-.83.945-1.183 1.45a10.667 10.667 0 00-1.184-1.45A10.626 10.626 0 0010.657 0a10.626 10.626 0 00-7.535 3.121c-4.163 4.163-4.163 10.91 0 15.071 1.809 1.81 12.755 10.914 13.514 11.674A3.862 3.862 0 0019.376 31a3.87 3.87 0 002.741-1.134c.178-.178.927-.823 1.973-1.714-1.884-1.6-4.19-3.557-4.772-4.138z" fill="#0075FF"/><path d="M37.05 15.795a5.797 5.797 0 00-4.11-1.704 5.795 5.795 0 00-4.11 1.702 5.813 5.813 0 00-.646.79 5.82 5.82 0 00-.646-.79 5.803 5.803 0 00-4.11-1.702 5.812 5.812 0 00-4.11 9.922c.987.987 6.957 5.953 7.37 6.367.415.414.955.618 1.496.618.54 0 1.082-.206 1.496-.618.415-.414 6.385-5.382 7.37-6.366a5.81 5.81 0 000-8.22z" fill="#123578"/></svg><svg fill="none" viewBox="0 0 14 12" id="item-list" xmlns="http://www.w3.org/2000/svg"><path d="M1.117 6.84l3.362 3.362 8.404-8.404" stroke="#0075FF" stroke-width="2" stroke-linecap="round" stroke-linejoin="round"/></svg><svg fill="none" viewBox="0 0 40 40" id="jobs" xmlns="http://www.w3.org/2000/svg"><path d="M19.602 39.203c10.825 0 19.601-8.776 19.601-19.601C39.203 8.776 30.427 0 19.602 0 8.776 0 0 8.776 0 19.602c0 10.825 8.776 19.601 19.602 19.601z" fill="#0075FF"/><path d="M17.641 27.442a1.955 1.955 0 01-1.385-.574l-5.88-5.88a1.958 1.958 0 010-2.772 1.958 1.958 0 012.77 0l4.495 4.494 8.415-8.415a1.958 1.958 0 012.772 0 1.958 1.958 0 010 2.772l-9.8 9.801a1.955 1.955 0 01-1.387.574z" fill="#EDF5FF"/></svg><svg fill="none" viewBox="0 0 30 35" id="уmployees" xmlns="http://www.w3.org/2000/svg"><path d="M22.206 20.588H7.794a7.206 7.206 0 000 14.412h14.412a7.206 7.206 0 000-14.412z" fill="#123578"/><path d="M15 16.47A8.235 8.235 0 1015 0a8.235 8.235 0 000 16.47z" fill="#0075FF"/></svg></svg>